Cube (1997)

90 min  -  Horror | Mystery | Sci-Fi 

 IMDB RATING 7.5/10

7 complete strangers of widely varying personality characteristics are involuntarily placed in an endless kafkaesque maze containing deadly traps. 


Format                         : AVI
Format/Info                    : Audio Video Interleave
File size                      : 678 MiB
Duration                       : 1h 26mn
Overall bit rate               : 1 094 Kbps

Video
ID                             : 0
Format                         : MPEG-4 Visual
Format settings, BVOP          : Yes
Format settings, QPel          : No
Format settings, GMC           : No warppoints
Format settings, Matrix        : Default (H.263)
Codec ID                       : DX50
Codec ID/Hint                  : DivX 5
Duration                       : 1h 26mn
Bit rate                       : 969 Kbps
Width                          : 640 pixels
Height                         : 368 pixels
Display aspect ratio           : 16:9
Frame rate                     : 25.000 fps
Color space                    : YUV
Chroma subsampling             : 4:2:0
Bit depth                      : 8 bits
Scan type                      : Progressive
Compression mode               : Lossy
Bits/(Pixel*Frame)             : 0.165
Stream size                    : 600 MiB (89%)
Title                          : NeoVideo92CF
Writing library                : DivX 5.0.2 (UTC 2002-05-16)

Audio
ID                             : 1
Format                         : MPEG Audio
Format version                 : Version 1
Format profile                 : Layer 3
Mode                           : Joint stereo
Mode extension                 : MS Stereo
Codec ID                       : 55
Codec ID/Hint                  : MP3
Duration                       : 1h 26mn
Bit rate mode                  : Constant
Bit rate                       : 112 Kbps
Channel(s)                     : 2 channels
Sampling rate                  : 48.0 KHz
Compression mode               : Lossy
Stream size                    : 69.4 MiB (10%)
Alignment                      : Split accross interleaves
Interleave, duration           : 24 ms (0.60 video frame)
Interleave, preload duration   : 22 ms
Title                          : NeoSound92CF0